<svg width="1280" height="760" viewBox="0 0 1280 760" fill="none" xmlns="http://www.w3.org/2000/svg">
  <rect width="1280" height="760" rx="32" fill="#F6F1DE"/>
  <rect x="144" y="142" width="992" height="476" rx="32" fill="#0F1B2D" stroke="#1D3557" stroke-width="6"/>
  <rect x="192" y="206" width="382" height="348" rx="28" fill="#132742" stroke="#94D82D" stroke-width="4"/>
  <rect x="706" y="206" width="382" height="348" rx="28" fill="#132742" stroke="#FFB703" stroke-width="4"/>

  <text x="640" y="92" text-anchor="middle" font-family="Arial, sans-serif" font-size="36" font-weight="700" fill="#111111">Arduino UNO Q: two processors, one board</text>
  <text x="640" y="124" text-anchor="middle" font-family="Arial, sans-serif" font-size="18" fill="#4B5563">Use the Linux side for connection and tooling, and the MCU side for real-time sensor and output work.</text>

  <text x="383" y="258" text-anchor="middle" font-family="Arial, sans-serif" font-size="30" font-weight="700" fill="#D9F99D">Linux side</text>
  <text x="897" y="258" text-anchor="middle" font-family="Arial, sans-serif" font-size="30" font-weight="700" fill="#FFE29A">MCU side</text>

  <rect x="252" y="296" width="264" height="78" rx="18" fill="#0B1220" stroke="#294C77" stroke-width="3"/>
  <text x="384" y="326" text-anchor="middle" font-family="Arial, sans-serif" font-size="20" font-weight="700" fill="#FFFFFF">What it helps with</text>
  <text x="384" y="354" text-anchor="middle" font-family="Arial, sans-serif" font-size="18" fill="#C7D2FE">Wi-Fi, App Lab, Edge Impulse</text>

  <rect x="766" y="296" width="264" height="78" rx="18" fill="#0B1220" stroke="#6E4E00" stroke-width="3"/>
  <text x="898" y="326" text-anchor="middle" font-family="Arial, sans-serif" font-size="20" font-weight="700" fill="#FFFFFF">What it helps with</text>
  <text x="898" y="354" text-anchor="middle" font-family="Arial, sans-serif" font-size="18" fill="#FDE68A">Modulino, LEDs, buzzer, timing</text>

  <rect x="224" y="414" width="320" height="96" rx="22" fill="#08111F"/>
  <text x="384" y="452" text-anchor="middle" font-family="Arial, sans-serif" font-size="24" font-weight="700" fill="#E5E7EB">Today in class</text>
  <text x="384" y="484" text-anchor="middle" font-family="Arial, sans-serif" font-size="19" fill="#D1FAE5">connect board</text>
  <text x="384" y="510" text-anchor="middle" font-family="Arial, sans-serif" font-size="19" fill="#D1FAE5">link Edge Impulse</text>

  <rect x="738" y="414" width="320" height="96" rx="22" fill="#08111F"/>
  <text x="898" y="452" text-anchor="middle" font-family="Arial, sans-serif" font-size="24" font-weight="700" fill="#E5E7EB">Today in class</text>
  <text x="898" y="484" text-anchor="middle" font-family="Arial, sans-serif" font-size="19" fill="#FEF3C7">read sensors</text>
  <text x="898" y="510" text-anchor="middle" font-family="Arial, sans-serif" font-size="19" fill="#FEF3C7">control outputs</text>

  <line x1="574" y1="380" x2="706" y2="380" stroke="#9CA3AF" stroke-width="6" stroke-linecap="round" stroke-dasharray="10 12"/>
  <circle cx="640" cy="380" r="30" fill="#111827" stroke="#E5E7EB" stroke-width="3"/>
  <text x="640" y="387" text-anchor="middle" font-family="Arial, sans-serif" font-size="18" font-weight="700" fill="#FFFFFF">bridge</text>

  <path d="M350 618C350 670 306 712 254 712H186C134 712 90 670 90 618C90 566 134 524 186 524H254C306 524 350 566 350 618Z" fill="#E9FAF0" stroke="#94D82D" stroke-width="4"/>
  <text x="220" y="602" text-anchor="middle" font-family="Arial, sans-serif" font-size="26" font-weight="700" fill="#0F172A">Cloud</text>
  <text x="220" y="636" text-anchor="middle" font-family="Arial, sans-serif" font-size="18" fill="#334155">Edge Impulse</text>
  <text x="220" y="662" text-anchor="middle" font-family="Arial, sans-serif" font-size="18" fill="#334155">setup and sync</text>

  <path d="M1090 618C1090 670 1046 712 994 712H926C874 712 830 670 830 618C830 566 874 524 926 524H994C1046 524 1090 566 1090 618Z" fill="#FFF7DF" stroke="#FFB703" stroke-width="4"/>
  <text x="960" y="602" text-anchor="middle" font-family="Arial, sans-serif" font-size="26" font-weight="700" fill="#0F172A">Modulino</text>
  <text x="960" y="636" text-anchor="middle" font-family="Arial, sans-serif" font-size="18" fill="#334155">Movement / Pixels</text>
  <text x="960" y="662" text-anchor="middle" font-family="Arial, sans-serif" font-size="18" fill="#334155">Buzzer / sensing</text>

  <path d="M286 523L322 473" stroke="#94D82D" stroke-width="6" stroke-linecap="round"/>
  <path d="M924 523L956 473" stroke="#FFB703" stroke-width="6" stroke-linecap="round"/>

  <rect x="540" y="596" width="200" height="68" rx="18" fill="#111827"/>
  <text x="640" y="624" text-anchor="middle" font-family="Arial, sans-serif" font-size="18" font-weight="700" fill="#FFFFFF">One board</text>
  <text x="640" y="650" text-anchor="middle" font-family="Arial, sans-serif" font-size="18" fill="#D1D5DB">two jobs at once</text>
</svg>